<?xml version="1.0" encoding="utf-8"?>
<!-- Generator: Adobe Illustrator 17.0.0, SVG Export Plug-In . SVG Version: 6.00 Build 0)  -->
<!DOCTYPE svg PUBLIC "-//W3C//DTD SVG 1.1//EN" "http://www.w3.org/Graphics/SVG/1.1/DTD/svg11.dtd">
<svg version="1.1" id="Layer_1" xmlns="http://www.w3.org/2000/svg" xmlns:xlink="http://www.w3.org/1999/xlink" x="0px" y="0px"
	 width="232.377px" height="405.914px" viewBox="108.901 73.341 232.377 405.914"
	 enable-background="new 108.901 73.341 232.377 405.914" xml:space="preserve">
<title>footprints</title>
<g>
	<title>Layer 1</title>
	<path id="svg_1" d="M204.312,375.472c29.354-3.475,24.424-54.686,0.772-68.636c-15.669-9.242-36.824-8.839-50.984-2.606
		c-26.859,11.821-33.989,26.933-37.851,56.473s9.079,107.679,40.169,116.421c27.809,7.819,38.541-7.343,35.534-21.72
		c-3.09-14.77-18.32-33.903-19.312-46.916C170.322,378.078,204.312,375.472,204.312,375.472z"/>
	<path id="svg_2" d="M244.443,317.437c-8.68,8.011-19.292,7.396-23.702-1.372c-4.411-8.769-0.949-22.371,7.731-30.381
		s19.291-7.396,23.702,1.372C256.583,295.824,253.123,309.427,244.443,317.437z"/>
	<path id="svg_3" d="M207.954,300.377c-7.144,1.385-13.89-3.88-15.068-11.762c-1.179-7.882,3.382-19.729,10.525-21.115
		c7.143-1.386,13.89,3.88,15.068,11.762S215.097,298.991,207.954,300.377z"/>
	<path id="svg_4" d="M183.478,291.135c-3.471,6.025-8.558,7.184-13.641,2.8c-5.083-4.384-6.278-16.888-2.807-22.913
		c3.471-6.024,8.558-7.184,13.641-2.799C185.754,272.607,186.949,285.111,183.478,291.135z"/>
	<path id="svg_5" d="M154.064,291.727c-1.042,6.002-6.257,9.784-11.649,8.445s-9.775-10.441-8.733-16.443s6.257-9.784,11.649-8.445
		S155.106,285.724,154.064,291.727z"/>
	<path id="svg_6" d="M127.957,303.87c3.728,5.167,3.019,11.679-1.582,14.546c-4.602,2.866-11.354,1.002-15.082-4.165
		c-3.728-5.167-3.019-11.679,1.583-14.546S124.229,298.703,127.957,303.87z"/>
	<path id="svg_7" d="M243.866,175.555c-27.996-3.088-23.294-48.595-0.737-60.991c14.944-8.213,35.12-7.854,48.625-2.316
		c25.616,10.504,32.416,23.933,36.1,50.183s-8.659,95.685-38.31,103.453c-26.523,6.948-36.758-6.525-33.89-19.301
		c2.947-13.125,17.472-30.126,18.418-41.69C276.283,177.871,243.866,175.555,243.866,175.555z"/>
	<path id="svg_8" d="M205.97,118.686c8.531,8.291,19.489,7.989,24.476-0.675c4.987-8.663,2.114-22.408-6.416-30.698
		s-19.488-7.988-24.476,0.675C194.567,96.652,197.44,110.396,205.97,118.686z"/>
	<path id="svg_9" d="M248.073,106.439c6.065,1.385,11.792-3.88,12.792-11.762c1.001-7.882-2.871-19.729-8.935-21.115
		c-6.064-1.386-11.792,3.88-12.792,11.762S242.009,105.053,248.073,106.439z"/>
	<path id="svg_11" d="M269.619,97.104c2.604,6.655,7.905,8.883,14.275,5.671c6.37-3.212,10.09-15.222,7.486-21.878
		c-2.604-6.655-7.905-8.883-14.275-5.671C270.735,78.438,267.015,90.449,269.619,97.104z"/>
	<path id="svg_12" d="M297.524,102.998c1.174,6.002,7.049,9.784,13.122,8.445s11.011-10.441,9.837-16.443s-7.049-9.784-13.122-8.445
		S296.35,96.996,297.524,102.998z"/>
	<path id="svg_13" d="M323.014,114.582c-3.573,5.891-2.894,13.316,1.516,16.585c4.41,3.268,10.882,1.143,14.456-4.748
		c3.573-5.891,2.894-13.316-1.517-16.584S326.587,108.691,323.014,114.582z"/>
</g>
</svg>
